<svg id="Capa_1" enable-background="new 0 0 512 512" height="512" viewBox="0 0 512 512" width="512" xmlns="http://www.w3.org/2000/svg"><path d="m498.715 315.902c7.571-.872 13.285-7.281 13.285-14.902v-210c0-8.284-6.716-15-15-15h-392.774l-14.864-49.328c-1.909-6.336-7.745-10.672-14.362-10.672h-60c-8.284 0-15 6.716-15 15s6.716 15 15 15h48.854l84.383 280.04-43.951 5.058c-7.572.872-13.286 7.281-13.286 14.902v90c0 8.284 6.716 15 15 15h61.899c6.678 25.849 30.195 45 58.101 45s51.424-19.151 58.101-45h63.797c6.678 25.849 30.195 45 58.101 45s51.424-19.151 58.101-45h31.9c8.284 0 15-6.716 15-15s-6.716-15-15-15h-31.899c-6.678-25.849-30.195-45-58.101-45s-51.424 19.151-58.101 45h-63.797c-6.678-25.849-30.195-45-58.101-45s-51.424 19.151-58.101 45h-46.9v-61.627zm-137.715-89.902v75.553l-90 10.358v-85.911zm-90-30v-90h90v90zm120 102.101v-72.101h91v61.627zm91-102.101h-91v-90h91zm-241-90v90h-100.615l-27.119-90zm-91.575 120h91.575v89.364l-62.481 7.191zm256.575 180c16.542 0 30 13.458 30 30s-13.458 30-30 30-30-13.458-30-30 13.458-30 30-30zm-180 0c16.542 0 30 13.458 30 30s-13.458 30-30 30-30-13.458-30-30 13.458-30 30-30z"/></svg>